<?xml version="1.0" encoding="UTF-8"?>
<svg version="1.1" viewBox="0 0 2000 1500" xmlns="http://www.w3.org/2000/svg">
<rect width="2e3" height="1500" fill="#c9efc7"/>
<g transform="matrix(.75 0 0 .75 249.09 566.52)">
<svg width="2e3" height="489" data-background-color="#c9efc7" viewBox="0 0 396 97" xmlns="http://www.w3.org/2000/svg" xmlns:xlink="http://www.w3.org/1999/xlink">
<g transform="translate(.23999 .027771)">
<svg width="395.52" height="96.944" viewBox="0 0 395.52 96.9444577049085">
<svg width="395.52" height="96.944" viewBox="0 0 482.6892379559936 118.31019016393441">
<g transform="translate(87.169 36.56)">
<svg width="395.52" height="45.191" viewBox="0 0 395.52 45.19105812220566">
<svg width="395.52" height="45.191" viewBox="0 0 395.52 45.19105812220566">
<svg width="395.52" height="45.191" viewBox="0 0 395.52 45.19105812220566">
<g>
<svg width="395.52" height="45.191" data-palette-color="#3d9970" viewBox="-0.27000001072883606 -33.08000183105469 294.8499755859375 33.69000244140625">
<path class="wordmark-text-0" d="m8.86-7.03-2.29 7.23q-2.1-0.2-4.91-0.2h-1.93l10.62-29.76q0.71-2 0.71-2.33t-0.02-0.41l0.02-0.04q1.59 0.07 3.37 0.07 1.46 0 3.51-0.05l0.03 0.05q-0.05 0.1-0.05 0.27 0 0.46 0.73 2.46l10.84 29.81q-0.49-0.02-1.15-0.02 0 0-1.26-0.05-0.62 0-1.1 0h-3.79l-2.29-7.03h-11.04zm1.86-5.86h7.27l-3.68-11.35-3.59 11.35zm36.64 12.91-0.05 0.08q-0.78-0.1-2.56-0.1h-2.69q-0.66 0-1.19 0.05l-0.03-0.05q0.1-0.17 0.1-0.39t-0.04-0.46q-0.03-0.25-0.2-0.88-0.18-0.64-0.54-1.83l-1.03-3.28-9.08-25.73q1.51 0.1 3.86 0.1 2.34 0 3-0.2l7.35 22.2 6.45-22.1q1.46 0.1 3.61 0.1 2.93 0 3.42-0.2l-8.91 25.76t-0.86 2.86q-0.71 2.44-0.71 3.16t0.1 0.91zm15.94-0.02v-32.57q2.44 0.1 2.95 0.1h1.76q1.3 0 2.08-0.2l-0.03 32.67h-6.76zm23.85 0.61q-3.95 0-7.45-0.63v-32.67q3.23-0.39 7.49-0.39t7.71 1.16q3.46 1.16 5.78 3.31 4.68 4.29 4.68 12.03 0 8.67-5.22 13.16-4.69 4.03-12.99 4.03zm-1.1-27.71v21.75q1.59 0.3 3.18 0.3 1.58 0 3.41-0.63 1.83-0.62 3.18-1.94 2.88-2.78 2.88-8.1 0-8.74-6.37-10.74-2.1-0.66-4.86-0.66h-0.66q-0.37 0-0.76 0.02zm59.23 27.3-5.67-12.82q-0.73 0.05-1.56 0.05t-2.47-0.13v12.7h-6.47v-32.64q3.42-0.44 8.4-0.44 6.79 0 10.12 2.5t3.33 7.73q0 4.05-3.05 6.93-1 0.93-2.29 1.61l4.98 10.5q1.46 3.25 2.24 3.86l-0.12 0.12q-2.37-0.39-7.44 0.03zm-7.3-27.52q-1.25 0-2.4 0.12v9.33q1.2 0.17 2.81 0.17t2.71-0.28 1.91-0.87q1.73-1.29 1.73-3.88t-1.81-3.64q-1.68-0.95-4.95-0.95zm26.63 21.46h9.96q1.51 0 2.1-0.29l0.1 0.02-0.25 6.13h-18.28v-32.64q0.66 0.05 1.46 0.07l1.71 0.05q1.71 0.05 3.71 0.05 5.59 0 11.06-0.2-0.27 2.15-0.27 5.74 0 0.39 0.05 0.59l-0.05 0.07q-1.27-0.37-3.61-0.37h-7.69v6.23h5.79q2.68 0 3.22-0.15l0.07 6.03q-1.17-0.12-3.03-0.12h-6.05v8.79zm23.34-1.17-2.3 7.23q-2.1-0.2-4.91-0.2h-1.92l10.62-29.76q0.7-2 0.7-2.33t-0.02-0.41l0.02-0.04q1.59 0.07 3.37 0.07 1.47 0 3.52-0.05l0.02 0.05q-0.05 0.1-0.05 0.27 0 0.46 0.74 2.46l10.84 29.81q-0.49-0.02-1.15-0.02 0 0-1.27-0.05-0.61 0-1.1 0h-3.78l-2.3-7.03h-11.03zm1.85-5.86h7.28l-3.69-11.35-3.59 11.35zm30.61 13.5q-3.95 0-7.44-0.63v-32.67q3.22-0.39 7.48-0.39t7.72 1.16q3.45 1.16 5.77 3.31 4.69 4.29 4.69 12.03 0 8.67-5.23 13.16-4.68 4.03-12.99 4.03zm-1.09-27.71v21.75q1.58 0.3 3.17 0.3t3.42-0.63q1.83-0.62 3.17-1.94 2.88-2.78 2.88-8.1 0-8.74-6.37-10.74-2.1-0.66-4.86-0.66h-0.66q-0.36 0-0.75 0.02zm32.85 21.24h9.97q1.51 0 2.1-0.29l0.09 0.02-0.24 6.13h-18.29v-32.64q0.66 0.05 1.47 0.07l1.71 0.05q1.71 0.05 3.71 0.05 5.59 0 11.06-0.2-0.27 2.15-0.27 5.74 0 0.39 0.05 0.59l-0.05 0.07q-1.27-0.37-3.61-0.37h-7.7v6.23h5.79q2.69 0 3.22-0.15l0.08 6.03q-1.18-0.12-3.03-0.12h-6.06v8.79zm34.84 6.06-5.66-12.82q-0.74 0.05-1.57 0.05t-2.46-0.13v12.7h-6.47v-32.64q3.42-0.44 8.4-0.44 6.78 0 10.12 2.5 3.33 2.5 3.33 7.73 0 4.05-3.05 6.93-1 0.93-2.3 1.61l4.98 10.5q1.47 3.25 2.25 3.86l-0.12 0.12q-2.37-0.39-7.45 0.03zm-7.3-27.52q-1.24 0-2.39 0.12v9.33q1.2 0.17 2.81 0.17t2.71-0.28q1.09-0.28 1.9-0.87 1.73-1.29 1.73-3.88t-1.8-3.64q-1.69-0.95-4.96-0.95z" fill="#3d9970" data-fill-palette-color="primary"/>
</svg>
</g>
</svg>
</svg>
</svg>
</g>
<svg width="76.501" height="118.31" viewBox="0 0 76.50071371873578 118.31019016393441">
<svg class="icon-icon-0" width="76.501" height="118.31" enable-background="new 0 0 100 100" data-fill-palette-color="accent" version="1.1" viewBox="20.927757263183594 5 58.1722412109375 89.96476745605469" xml:space="preserve" xmlns="http://www.w3.org/2000/svg" xmlns:xlink="http://www.w3.org/1999/xlink"><g fill="#3d9970" data-fill-palette-color="accent"><circle cx="43.4" cy="15.2" r="10" data-fill-palette-color="accent"/><path d="m21.3 39.9c1.4 3 4.3 1.4 4.3 1.4l-2.7-5.7c0-0.1-3 1.2-1.6 4.3z" data-fill-palette-color="accent"/><path d="m61.1 5.2v33.1l-0.3-0.6c-0.1-0.1-0.1-0.3-0.2-0.4l-0.1-0.1-5-7.1c-0.1-0.2-0.3-0.3-0.4-0.5-0.8-1.1-2.2-1.9-3.7-1.9h-12.3-0.1l0.5 1 5.6 12.3c0.6-0.6 1.3-1.1 2.2-1.2l4.4-1.2-2.8-5.5c-0.1-0.2-0.2-0.4-0.2-0.6l4.7 6.7-5.7 1.6c-1.7 0.2-2.7 1.8-2.4 3.4 0.4 2.1 2.5 3.5 4.6 3l8.2-1.1c1.2-0.2 2.3-0.8 3-1.6v48.5h18v-87.8h-18z" data-fill-palette-color="accent"/><path d="m48.9 48.7c-1 0-2-0.3-2.8-0.9l-0.8 0.1-10.8 1.8v2.4l-4.6 16.9-2 18.9c-0.4 1.9 0.9 3.8 2.8 4.2 1.8 0.4 3.6-0.8 3.9-1.5l3.4-20 2.2-6.6-1.4 11.4 0.7 15.4c-0.1 2 1.2 3.8 3.2 4.1 2.1 0.4 4.2-1.1 4.5-3.2l0.6-16.3s7.4-16.6 8-22.2c0-0.2 0.1-0.5 0.1-0.7v-4.8l-6.1 0.8c-0.2 0.1-0.5 0.2-0.9 0.2z" data-fill-palette-color="accent"/><path d="m34.8 47.6 9.9-1.7c-0.5-0.8-0.7-1.6-0.6-2.3l-6.5-14h-0.6-0.9c-5.6 0.2-8.7 1.9-8.7 1.9-3.6-1.7-5.7-1.9-5.7-1.9l7.6 14.9 5.5 3.1z" data-fill-palette-color="accent"/></g></svg>
</svg>
</svg>
</svg>
<rect width="395.52" height="96.944" fill="none" visibility="hidden"/>
</g>
</svg>
</g>
</svg>
