<svg xmlns="http://www.w3.org/2000/svg" version="1.1" xmlns:xlink="http://www.w3.org/1999/xlink" xmlns:svgjs="http://svgjs.dev/svgjs" width="128" height="128" viewBox="0 0 128 128"><g transform="matrix(0.5255102040816326,0,0,0.5255102040816326,30.225821189420834,12.760752631578946)"><svg viewBox="0 0 62 95" data-background-color="#c9efc7" preserveAspectRatio="xMidYMid meet" height="196" width="128" xmlns="http://www.w3.org/2000/svg" xmlns:xlink="http://www.w3.org/1999/xlink"><g id="tight-bounds" transform="matrix(1,0,0,1,0.13044758086756758,-0.24049999999999727)"><svg viewBox="0 0 61.73910483826487 95.481" height="95.481" width="61.73910483826487"><g><svg viewBox="0 0 61.73910483826487 95.481" height="95.481" width="61.73910483826487"><g><svg viewBox="0 0 61.73910483826487 95.481" height="95.481" width="61.73910483826487"><g id="textblocktransform"><svg viewBox="0 0 61.73910483826487 95.481" height="95.481" width="61.73910483826487" id="textblock"><g><svg viewBox="0 0 61.73910483826487 95.481" height="95.481" width="61.73910483826487"><g><svg viewBox="0 0 61.73910483826487 95.481" height="95.481" width="61.73910483826487"><g><svg xmlns="http://www.w3.org/2000/svg" xmlns:xlink="http://www.w3.org/1999/xlink" version="1.1" x="0" y="0" viewBox="20.927757487216947 5.000000264450815 58.17224251278304 89.9647622347862" enable-background="new 0 0 100 100" xml:space="preserve" height="95.481" width="61.73910483826487" class="icon-icon-0" data-fill-palette-color="accent" id="icon-0"><g fill="#3d9970" data-fill-palette-color="accent"><circle cx="43.4" cy="15.2" r="10" fill="#3d9970" data-fill-palette-color="accent"></circle><path d="M21.3 39.9c1.4 3 4.3 1.4 4.3 1.4l-2.7-5.7C22.9 35.5 19.9 36.8 21.3 39.9z" fill="#3d9970" data-fill-palette-color="accent"></path><path d="M61.1 5.2v33.1l-0.3-0.6c-0.1-0.1-0.1-0.3-0.2-0.4l-0.1-0.1 0 0 0 0-5-7.1c-0.1-0.2-0.3-0.3-0.4-0.5-0.8-1.1-2.2-1.9-3.7-1.9H39.1c0 0-0.1 0-0.1 0l0.5 1L45.1 41c0.6-0.6 1.3-1.1 2.2-1.2l4.4-1.2-2.8-5.5c-0.1-0.2-0.2-0.4-0.2-0.6l4.7 6.7-5.7 1.6C46 41 45 42.6 45.3 44.2c0.4 2.1 2.5 3.5 4.6 3l8.2-1.1c1.2-0.2 2.3-0.8 3-1.6V93h18V5.2H61.1z" fill="#3d9970" data-fill-palette-color="accent"></path><path d="M48.9 48.7c-1 0-2-0.3-2.8-0.9l-0.8 0.1-10.2 1.7-0.6 0.1v2.4l-4.6 16.9-2 18.9c-0.4 1.9 0.9 3.8 2.8 4.2 1.8 0.4 3.6-0.8 3.9-1.5L38 70.6l2.2-6.6-1.4 11.4 0.7 15.4c-0.1 2 1.2 3.8 3.2 4.1 2.1 0.4 4.2-1.1 4.5-3.2l0.6-16.3c0 0 7.4-16.6 8-22.2h0c0-0.2 0.1-0.5 0.1-0.7v-4.8l-6.1 0.8C49.6 48.6 49.3 48.7 48.9 48.7z" fill="#3d9970" data-fill-palette-color="accent"></path><path d="M34.8 47.6l9.9-1.7c-0.5-0.8-0.7-1.6-0.6-2.3l0 0v0l-6.5-14c-0.2 0-0.4 0-0.6 0-0.3 0-0.6 0-0.9 0-5.6 0.2-8.7 1.9-8.7 1.9-3.6-1.7-5.7-1.9-5.7-1.9l7.6 14.9L34.8 47.6z" fill="#3d9970" data-fill-palette-color="accent"></path></g></svg></g></svg></g></svg></g></svg></g></svg></g></svg></g><defs></defs></svg><rect width="61.73910483826487" height="95.481" fill="none" stroke="none" visibility="hidden"></rect></g></svg></g></svg>